<svg width="32" height="33" viewBox="0 0 32 33" fill="none" xmlns="http://www.w3.org/2000/svg">
<g id="BehanceLogo">
<path id="Vector" d="M20 10.5C20 10.2348 20.1054 9.98043 20.2929 9.79289C20.4804 9.60536 20.7348 9.5 21 9.5H29C29.2652 9.5 29.5196 9.60536 29.7071 9.79289C29.8946 9.98043 30 10.2348 30 10.5C30 10.7652 29.8946 11.0196 29.7071 11.2071C29.5196 11.3946 29.2652 11.5 29 11.5H21C20.7348 11.5 20.4804 11.3946 20.2929 11.2071C20.1054 11.0196 20 10.7652 20 10.5ZM17 20.25C17 21.6424 16.4469 22.9777 15.4623 23.9623C14.4777 24.9469 13.1424 25.5 11.75 25.5H4C3.73478 25.5 3.48043 25.3946 3.29289 25.2071C3.10536 25.0196 3 24.7652 3 24.5V8.5C3 8.23478 3.10536 7.98043 3.29289 7.79289C3.48043 7.60536 3.73478 7.5 4 7.5H11.25C12.2064 7.50102 13.1403 7.79074 13.9293 8.33125C14.7184 8.87176 15.3259 9.63788 15.6723 10.5293C16.0188 11.4208 16.0881 12.3961 15.8711 13.3276C15.6541 14.2591 15.161 15.1034 14.4563 15.75C15.2324 16.2169 15.8746 16.8767 16.3203 17.6652C16.7661 18.4538 17.0002 19.3442 17 20.25ZM5 15H11.25C11.9793 15 12.6788 14.7103 13.1945 14.1945C13.7103 13.6788 14 12.9793 14 12.25C14 11.5207 13.7103 10.8212 13.1945 10.3055C12.6788 9.78973 11.9793 9.5 11.25 9.5H5V15ZM15 20.25C15 19.8232 14.9159 19.4006 14.7526 19.0063C14.5893 18.612 14.3499 18.2537 14.0481 17.9519C13.7463 17.6501 13.388 17.4107 12.9937 17.2474C12.5994 17.0841 12.1768 17 11.75 17H5V23.5H11.75C12.1768 23.5 12.5994 23.4159 12.9937 23.2526C13.388 23.0893 13.7463 22.8499 14.0481 22.5481C14.3499 22.2463 14.5893 21.888 14.7526 21.4937C14.9159 21.0994 15 20.6768 15 20.25ZM31 19.5C31 19.7652 30.8946 20.0196 30.7071 20.2071C30.5196 20.3946 30.2652 20.5 30 20.5H21.125C21.3132 21.2297 21.7038 21.8913 22.2516 22.4088C22.7995 22.9262 23.4824 23.2783 24.2216 23.4246C24.9608 23.571 25.7263 23.5055 26.43 23.2357C27.1336 22.966 27.7467 22.503 28.1987 21.9C28.2776 21.7949 28.3764 21.7065 28.4895 21.6396C28.6026 21.5727 28.7277 21.5287 28.8578 21.5102C28.9878 21.4917 29.1203 21.499 29.2475 21.5317C29.3748 21.5643 29.4943 21.6217 29.5994 21.7006C29.7044 21.7795 29.7929 21.8783 29.8598 21.9914C29.9267 22.1044 29.9706 22.2296 29.9891 22.3596C30.0077 22.4897 30.0004 22.6221 29.9677 22.7494C29.935 22.8766 29.8776 22.9962 29.7987 23.1012C28.9436 24.2407 27.7109 25.0386 26.3212 25.3523C24.9316 25.666 23.4756 25.475 22.2139 24.8135C20.9522 24.152 19.967 23.0631 19.4346 21.7416C18.9023 20.4202 18.8575 18.9525 19.3083 17.601C19.7591 16.2496 20.676 15.1027 21.8951 14.3654C23.1141 13.6282 24.5557 13.3488 25.9619 13.5772C27.3681 13.8056 28.6472 14.5269 29.5702 15.612C30.4933 16.6972 31.0001 18.0754 31 19.5ZM28.875 18.5C28.6547 17.6396 28.1543 16.877 27.4527 16.3324C26.7511 15.7878 25.8882 15.4922 25 15.4922C24.1118 15.4922 23.2489 15.7878 22.5473 16.3324C21.8457 16.877 21.3453 17.6396 21.125 18.5H28.875Z" fill="black"/>
</g>
</svg>
