<svg width="32" height="33" viewBox="0 0 32 33" fill="none" xmlns="http://www.w3.org/2000/svg">
<g id="CaretRight">
<path id="Vector" d="M22.7071 17.2076L12.7071 27.2076C12.6142 27.3005 12.5039 27.3742 12.3825 27.4245C12.2611 27.4747 12.131 27.5006 11.9996 27.5006C11.8682 27.5006 11.7381 27.4747 11.6167 27.4245C11.4953 27.3742 11.385 27.3005 11.2921 27.2076C11.1992 27.1147 11.1255 27.0044 11.0752 26.883C11.0249 26.7616 10.999 26.6315 10.999 26.5001C10.999 26.3687 11.0249 26.2386 11.0752 26.1172C11.1255 25.9958 11.1992 25.8855 11.2921 25.7926L20.5858 16.5001L11.2921 7.20757C11.1044 7.01993 10.999 6.76543 10.999 6.50007C10.999 6.2347 11.1044 5.98021 11.2921 5.79257C11.4797 5.60493 11.7342 5.49951 11.9996 5.49951C12.2649 5.49951 12.5194 5.60493 12.7071 5.79257L22.7071 15.7926C22.8001 15.8854 22.8738 15.9957 22.9241 16.1171C22.9745 16.2385 23.0004 16.3687 23.0004 16.5001C23.0004 16.6315 22.9745 16.7616 22.9241 16.883C22.8738 17.0044 22.8001 17.1147 22.7071 17.2076Z" fill="white"/>
</g>
</svg>
