<svg width="32" height="33" viewBox="0 0 32 33" fill="none" xmlns="http://www.w3.org/2000/svg">
<g id="DribbbleLogo">
<path id="Vector" d="M16 3.5C13.4288 3.5 10.9154 4.26244 8.77759 5.6909C6.63975 7.11935 4.97351 9.14968 3.98957 11.5251C3.00563 13.9006 2.74819 16.5144 3.2498 19.0362C3.75141 21.5579 4.98953 23.8743 6.80762 25.6924C8.6257 27.5105 10.9421 28.7486 13.4638 29.2502C15.9856 29.7518 18.5995 29.4944 20.9749 28.5104C23.3503 27.5265 25.3807 25.8603 26.8091 23.7224C28.2376 21.5846 29 19.0712 29 16.5C28.9964 13.0533 27.6256 9.74882 25.1884 7.31163C22.7512 4.87445 19.4467 3.50364 16 3.5ZM26.9563 15.5225C26.6379 15.5075 26.3192 15.5 26 15.5C24.145 15.5005 22.2982 15.746 20.5075 16.23C20.0709 14.9345 19.5078 13.6851 18.8263 12.5C20.6037 11.4281 22.2128 10.0992 23.6013 8.55625C25.5278 10.3943 26.7202 12.8703 26.9563 15.5225ZM22.035 7.3075C20.7859 8.67998 19.3422 9.86173 17.75 10.815C16.4165 8.93802 14.7854 7.29136 12.9213 5.94C14.4505 5.49356 16.0585 5.38463 17.6341 5.62074C19.2096 5.85686 20.715 6.43238 22.0463 7.3075H22.035ZM10.7063 6.86C12.7495 8.14675 14.5308 9.80847 15.9563 11.7575C13.4615 12.9073 10.7469 13.5018 8.00001 13.5C7.15221 13.4996 6.30537 13.4432 5.46501 13.3313C6.3012 10.5731 8.18202 8.25093 10.7063 6.86ZM5.00001 16.5C4.99995 16.0974 5.02207 15.6951 5.06626 15.295C6.03822 15.4315 7.01851 15.5 8.00001 15.5C11.1369 15.503 14.2346 14.8024 17.065 13.45C17.6886 14.5269 18.204 15.6628 18.6038 16.8412C17.5415 17.2403 16.5135 17.7252 15.53 18.2913C12.7863 19.8763 10.4338 22.0575 8.64626 24.6737C7.49833 23.644 6.58032 22.3838 5.95206 20.9755C5.3238 19.5671 4.9994 18.0421 5.00001 16.5ZM10.25 25.875C11.873 23.4746 14.0204 21.4746 16.53 20.0263C17.369 19.542 18.2446 19.1241 19.1488 18.7763C19.4582 20.1493 19.6145 21.5525 19.615 22.96C19.6157 24.3284 19.4694 25.6929 19.1788 27.03C17.6933 27.4788 16.1296 27.6078 14.5907 27.4088C13.0517 27.2097 11.5724 26.687 10.25 25.875ZM21.3825 26.0912C21.5368 25.0567 21.6145 24.0122 21.615 22.9662C21.6148 21.3473 21.4282 19.7337 21.0588 18.1575C22.6699 17.7227 24.3312 17.5017 26 17.5C26.3167 17.5 26.6338 17.5079 26.9513 17.5238C26.7838 19.2952 26.1898 20.9997 25.22 22.4915C24.2502 23.9833 22.9335 25.218 21.3825 26.09V26.0912Z" fill="black"/>
</g>
</svg>
