<svg width="240" height="592" viewBox="0 0 240 592" fill="none" xmlns="http://www.w3.org/2000/svg">
<g clip-path="url(#clip0_70_12)">
<rect width="240" height="592" fill="#11418A"/>
<g clip-path="url(#clip1_70_12)">
<rect x="56" y="233" width="126" height="126" rx="24" fill="#11418A"/>
<path d="M155.2 282.51C155.198 292.114 151.384 301.324 144.597 308.119C137.81 314.913 128.604 318.737 119 318.75H118.8C109.292 318.592 100.226 314.704 93.5577 307.924C86.8894 301.144 83.1523 292.015 83.1523 282.505C83.1523 272.995 86.8894 263.866 93.5577 257.086C100.226 250.306 109.292 246.418 118.8 246.26V261.32C113.269 261.44 108.005 263.722 104.136 267.676C100.267 271.63 98.1003 276.943 98.1003 282.475C98.1003 288.007 100.267 293.32 104.136 297.274C108.005 301.228 113.269 303.51 118.8 303.63H119C124.6 303.622 129.969 301.395 133.929 297.436C137.89 293.477 140.12 288.11 140.13 282.51H155.2Z" fill="white"/>
<path d="M147.17 320.67V338.74C138.392 343.378 128.606 345.781 118.677 345.735C108.749 345.69 98.9855 343.198 90.25 338.48V320.28C98.2735 326.905 108.345 330.545 118.75 330.58H119C129.245 330.586 139.185 327.089 147.17 320.67Z" fill="white"/>
<path d="M129.53 282.51C129.519 285.301 128.407 287.974 126.435 289.948C124.462 291.922 121.79 293.037 119 293.05H118.8C116.051 292.966 113.444 291.814 111.53 289.84C109.615 287.866 108.545 285.225 108.545 282.475C108.545 279.725 109.615 277.084 111.53 275.11C113.444 273.136 116.051 271.985 118.8 271.9H119C120.388 271.905 121.761 272.184 123.042 272.72C124.322 273.256 125.484 274.039 126.462 275.024C127.44 276.01 128.214 277.178 128.74 278.462C129.267 279.747 129.535 281.122 129.53 282.51Z" fill="#F7931B"/>
<path d="M150.689 261.32C150.688 262.308 150.55 263.29 150.279 264.24C149.541 266.814 147.854 269.013 145.558 270.392C143.263 271.771 140.53 272.229 137.91 271.672C135.29 271.115 132.979 269.586 131.443 267.392C129.907 265.199 129.26 262.504 129.632 259.852C130.004 257.2 131.369 254.788 133.45 253.102C135.531 251.416 138.173 250.583 140.845 250.769C143.517 250.955 146.018 252.147 147.845 254.106C149.672 256.064 150.689 258.642 150.689 261.32Z" fill="#F7931B"/>
</g>
</g>
<defs>
<clipPath id="clip0_70_12">
<rect width="240" height="592" fill="white"/>
</clipPath>
<clipPath id="clip1_70_12">
<rect x="56" y="233" width="126" height="126" rx="24" fill="white"/>
</clipPath>
</defs>
</svg>
