<svg width="64" height="65" viewBox="0 0 64 65" fill="none" xmlns="http://www.w3.org/2000/svg">
<path d="M64 2.38232V51.3227C64 51.8219 63.8017 52.3007 63.4487 52.6537C63.0957 53.0067 62.6169 53.205 62.1177 53.205C61.6185 53.205 61.1397 53.0067 60.7867 52.6537C60.4337 52.3007 60.2354 51.8219 60.2354 51.3227V6.92813L3.21511 63.9484C2.86191 64.3016 2.38287 64.5 1.88337 64.5C1.38387 64.5 0.904827 64.3016 0.551627 63.9484C0.198427 63.5952 9.84634e-09 63.1161 0 62.6166C-9.84635e-09 62.1171 0.198425 61.6381 0.551625 61.2849L57.5719 4.26464H13.1773C12.6781 4.26464 12.1993 4.06633 11.8463 3.71333C11.4933 3.36032 11.295 2.88154 11.295 2.38232C11.295 1.8831 11.4933 1.40432 11.8463 1.05132C12.1993 0.698316 12.6781 0.5 13.1773 0.5H62.1177C62.6169 0.5 63.0957 0.698316 63.4487 1.05132C63.8017 1.40432 64 1.8831 64 2.38232Z" fill="black"/>
</svg>
