<svg width="32" height="33" viewBox="0 0 32 33" fill="none" xmlns="http://www.w3.org/2000/svg">
<g id="TiktokLogo">
<path id="Vector" d="M28 9.5C26.4092 9.49835 24.884 8.86567 23.7592 7.74081C22.6343 6.61595 22.0017 5.09079 22 3.5C22 3.23478 21.8946 2.98043 21.7071 2.79289C21.5196 2.60536 21.2652 2.5 21 2.5H16C15.7348 2.5 15.4804 2.60536 15.2929 2.79289C15.1054 2.98043 15 3.23478 15 3.5V20C14.9998 20.4474 14.8796 20.8865 14.6518 21.2715C14.4241 21.6566 14.0972 21.9735 13.7053 22.1891C13.3133 22.4048 12.8707 22.5114 12.4236 22.4977C11.9764 22.484 11.5411 22.3506 11.1631 22.1114C10.7851 21.8722 10.4782 21.5359 10.2744 21.1376C10.0707 20.7394 9.97747 20.2938 10.0046 19.8472C10.0317 19.4007 10.1782 18.9696 10.4287 18.599C10.6792 18.2283 11.0245 17.9317 11.4288 17.74C11.5997 17.6589 11.7442 17.5309 11.8453 17.3709C11.9464 17.2109 12.0001 17.0255 12 16.8363V11.5C12.0001 11.3538 11.9681 11.2094 11.9063 11.0769C11.8445 10.9445 11.7544 10.8271 11.6424 10.7332C11.5304 10.6393 11.3992 10.5711 11.2579 10.5334C11.1167 10.4957 10.9689 10.4894 10.825 10.515C6.36375 11.31 3 15.3875 3 20C3 22.5196 4.00089 24.9359 5.78249 26.7175C7.56408 28.4991 9.98044 29.5 12.5 29.5C15.0196 29.5 17.4359 28.4991 19.2175 26.7175C20.9991 24.9359 22 22.5196 22 20V15.0363C23.8521 16.0026 25.911 16.5049 28 16.5C28.2652 16.5 28.5196 16.3946 28.7071 16.2071C28.8946 16.0196 29 15.7652 29 15.5V10.5C29 10.2348 28.8946 9.98043 28.7071 9.79289C28.5196 9.60536 28.2652 9.5 28 9.5ZM27 14.455C25.0458 14.2818 23.1746 13.5844 21.5837 12.4362C21.4342 12.3287 21.2579 12.2646 21.0743 12.2509C20.8906 12.2373 20.7068 12.2746 20.543 12.3587C20.3792 12.4429 20.2418 12.5706 20.146 12.7279C20.0502 12.8852 19.9997 13.0658 20 13.25V20C20 21.9891 19.2098 23.8968 17.8033 25.3033C16.3968 26.7098 14.4891 27.5 12.5 27.5C10.5109 27.5 8.60322 26.7098 7.1967 25.3033C5.79018 23.8968 5 21.9891 5 20C5 16.7625 7.08 13.8588 10 12.8V16.2587C9.35356 16.6907 8.83005 17.2827 8.4805 17.9771C8.13094 18.6716 7.96727 19.4447 8.00542 20.2213C8.04358 20.9978 8.28226 21.7512 8.69821 22.408C9.11417 23.0648 9.69319 23.6027 10.3789 23.9691C11.0645 24.3356 11.8334 24.5182 12.6107 24.499C13.3879 24.4799 14.1469 24.2598 14.8137 23.86C15.4805 23.4603 16.0324 22.8946 16.4156 22.2181C16.7987 21.5417 17.0001 20.7775 17 20V4.5H20.0625C20.2874 6.26135 21.0906 7.89822 22.3462 9.15379C23.6018 10.4094 25.2386 11.2126 27 11.4375V14.455Z" fill="black"/>
</g>
</svg>
