<svg width="31" height="40" viewBox="0 0 31 40" fill="none" xmlns="http://www.w3.org/2000/svg">
<path id="vector" fill-rule="evenodd" clip-rule="evenodd" d="M27.0013 31.275C25.9037 31.425 24.2572 31.625 23.908 31.725C23.5588 31.825 23.1097 32.075 22.96 32.725C22.8603 33.125 22.6108 34.775 22.511 35.875C24.357 34.725 25.9037 33.175 27.0013 31.275ZM15.576 37.825C17.9209 37.825 20.1162 37.225 22.0121 36.125C21.9123 34.975 21.7127 33.825 21.5132 32.725C21.4134 32.225 21.0142 31.875 20.5652 31.725C19.9665 31.575 16.474 31.125 16.474 31.125V30.875C16.474 30.875 19.9665 30.475 20.5652 30.275C20.9643 30.175 21.3635 29.925 21.5132 29.275C21.6628 28.675 22.062 25.425 22.1119 25.125C19.717 25.575 18.0706 26.675 16.025 27.775C13.8297 28.925 11.6843 29.725 8.94026 29.725C6.49552 29.725 4.30026 28.925 2.75359 27.925C4.30026 33.775 9.58886 37.775 15.576 37.825ZM2.45423 8.675H3.90112V7.525H4.40004C5.74714 7.525 6.59531 6.825 6.59531 5.625C6.59531 4.275 5.69724 3.825 4.20047 3.825C3.65165 3.825 2.95316 3.875 2.45423 3.925V8.675ZM7.14413 8.675H8.59101V6.825H10.0878V8.675H11.5347V3.925H10.0878V5.825H8.59101V3.925H7.14413C7.09423 3.925 7.09423 8.675 7.14413 8.675ZM12.5325 8.675H13.9794V3.925H12.5325V8.675ZM15.0271 8.675H17.6215L17.8211 7.725H16.4241V3.925H14.9772C15.0271 3.925 15.0271 8.675 15.0271 8.675ZM18.32 8.675H19.7669V3.925H18.32V8.675ZM20.8147 8.675H22.2615V7.525H22.7605C24.1076 7.525 24.9557 6.825 24.9557 5.625C24.9557 4.275 24.0577 3.825 22.5609 3.825C22.0121 3.825 21.3136 3.875 20.8147 3.925V8.675ZM15.576 10.775C14.4284 10.775 13.3308 10.925 12.2831 11.175C12.3329 11.675 12.4826 12.975 12.5824 13.225C12.6822 13.575 12.8818 13.725 13.1312 13.775C13.4805 13.875 15.3265 14.075 15.3265 14.075V14.225C15.3265 14.225 13.4306 14.475 13.1312 14.525C12.9317 14.575 12.6822 14.725 12.5824 15.075C12.5325 15.325 12.3329 16.575 12.2831 17.075C13.3807 17.225 14.5781 17.375 14.5781 17.375V17.625C14.5781 17.625 11.0856 18.025 10.4869 18.225C10.0878 18.325 9.68864 18.575 9.48907 19.225C9.3394 19.775 8.99015 22.875 8.94026 23.325C11.385 22.875 13.4805 21.575 15.077 20.825C17.3222 19.725 19.3678 18.825 22.1618 18.825C24.6065 18.825 26.7519 19.625 28.3484 20.625C26.7519 14.775 21.5631 10.775 15.576 10.775ZM27.6 7.375C27.6 7.675 27.4005 7.825 26.8517 7.825C26.3028 7.825 25.754 7.675 25.2052 7.425L25.3549 8.525C25.8538 8.675 26.3527 8.775 26.8517 8.775C28.0491 8.775 29.0469 8.375 29.0469 7.175C29.0469 5.575 26.8018 5.875 26.8018 5.125C26.8018 4.875 27.0512 4.725 27.4504 4.725C27.8994 4.725 28.3983 4.825 28.6977 4.975L28.5979 3.925C28.1489 3.825 27.7497 3.775 27.3007 3.775C26.1532 3.775 25.3549 4.225 25.3549 5.225C25.3549 6.925 27.6 6.575 27.6 7.375ZM22.3613 25.125C22.4112 25.375 22.7605 28.725 22.96 29.325C23.0598 29.825 23.459 30.175 23.908 30.325C24.357 30.425 26.2529 30.675 27.3007 30.825C28.1489 29.325 28.6478 27.625 28.8474 25.925C27.4005 25.325 25.8538 25.025 24.3071 25.025C23.5588 24.975 22.9101 25.025 22.3613 25.125ZM7.19402 16.825C7.59316 16.725 7.9923 16.475 8.14198 15.825C8.24176 15.425 8.44133 13.825 8.59101 12.725C6.79488 13.875 5.24821 15.375 4.15058 17.225C5.19832 17.125 6.19617 16.975 7.19402 16.825ZM2.30456 22.575C3.75144 23.125 5.2981 23.425 6.84477 23.475C7.49337 23.475 8.14198 23.425 8.74069 23.325C8.69079 22.825 8.34155 19.725 8.19187 19.175C8.09208 18.675 7.69294 18.325 7.24391 18.175C6.84477 18.075 4.99875 17.825 3.95101 17.675C3.05294 19.225 2.55402 20.875 2.30456 22.575ZM11.834 15.075C11.7841 14.825 11.5846 14.625 11.2852 14.525C11.0357 14.475 9.78843 14.275 9.2895 14.225C9.38929 14.925 9.48907 15.575 9.53897 15.775C9.63875 16.275 10.0379 16.625 10.4869 16.775C10.7364 16.825 11.385 16.925 12.0835 17.025C12.0336 16.425 11.9338 15.725 11.834 15.075ZM11.834 13.225C11.8839 12.975 12.0835 11.725 12.1334 11.225C11.0856 11.525 10.0379 11.925 9.08993 12.475C9.13982 12.925 9.18972 13.525 9.2895 14.075C9.78843 14.025 11.0357 13.875 11.2852 13.775C11.4848 13.725 11.7342 13.575 11.834 13.225ZM2.30456 25.975C4.0009 27.075 6.34585 27.625 8.34155 27.625C11.3351 27.625 13.1312 26.725 15.077 25.725C17.7712 24.375 20.0164 22.925 23.5588 22.925C25.4048 22.925 27.2508 23.375 28.9471 24.225C28.9471 23.675 28.8972 23.075 28.8474 22.525C27.151 21.425 24.8061 20.875 22.8603 20.875C19.8667 20.875 18.0706 21.775 16.1248 22.775C13.5803 24.025 11.1854 25.575 7.64305 25.575C5.49767 25.575 2.25466 24.225 2.25466 24.225C2.20477 24.825 2.25466 25.425 2.30456 25.975ZM30.9927 0.975V24.275C30.9927 32.875 24.1076 39.875 15.576 39.875C6.94456 39.875 0.15918 32.875 0.15918 24.275V0.975C2.15488 0.725 8.59101 0.125 15.576 0.125C22.3613 0.125 28.8972 0.675 30.9927 0.975ZM19.2181 33.675C19.1183 33.425 18.9686 31.925 18.9686 31.925H18.8689C18.8689 31.925 18.7192 33.425 18.6194 33.675C18.5695 33.925 18.3699 34.025 18.2203 34.075C17.9708 34.125 16.474 34.325 16.474 34.325V34.425C16.474 34.425 17.9209 34.625 18.2203 34.675C18.3699 34.725 18.5695 34.825 18.6194 35.075C18.7192 35.325 18.8689 36.825 18.8689 36.825H18.9686C18.9686 36.825 19.1183 35.325 19.2181 35.075C19.3179 34.825 19.4676 34.675 19.6172 34.675C19.8667 34.625 21.3635 34.425 21.3635 34.425V34.325C21.3635 34.325 19.9166 34.125 19.6172 34.075C19.4676 34.075 19.268 33.975 19.2181 33.675ZM23.6086 5.625C23.6086 5.025 23.2594 4.675 22.5609 4.675H22.3114V6.625H22.5609C23.3093 6.675 23.6086 6.275 23.6086 5.625ZM4.15058 6.675H3.95101V4.725H4.15058C4.84907 4.725 5.19832 5.075 5.19832 5.675C5.19832 6.275 4.89896 6.675 4.15058 6.675Z" fill="black"/>
</svg>
